<?xml version="1.0" standalone="no"?>
<!DOCTYPE svg PUBLIC "-//W3C//DTD SVG 20010904//EN"
 "http://www.w3.org/TR/2001/REC-SVG-20010904/DTD/svg10.dtd">
<svg version="1.0" xmlns="http://www.w3.org/2000/svg"
 width="1000.000000pt" height="1000.000000pt" viewBox="0 0 1000.000000 1000.000000"
 preserveAspectRatio="xMidYMid meet">
<metadata>
Created by potrace 1.14, written by Peter Selinger 2001-2017
</metadata>
<g transform="translate(0.000000,1000.000000) scale(0.100000,-0.100000)"
fill="#000000" stroke="none">
<path d="M4709 9516 c-2 -2 -44 -7 -94 -10 -49 -4 -103 -8 -120 -11 -16 -2
-52 -7 -80 -10 -81 -10 -176 -24 -235 -35 -30 -6 -67 -13 -83 -15 -205 -37
-685 -173 -780 -222 -16 -8 -37 -16 -48 -18 -10 -2 -35 -11 -55 -21 -20 -10
-42 -17 -50 -17 -8 0 -14 -3 -14 -7 0 -4 -21 -15 -47 -25 -27 -10 -78 -33
-115 -52 -38 -18 -69 -32 -70 -31 -2 1 -28 -12 -58 -29 -30 -16 -91 -49 -135
-73 -134 -72 -139 -74 -159 -92 -11 -10 -24 -18 -29 -18 -5 0 -20 -9 -34 -20
-14 -11 -29 -17 -34 -14 -5 3 -9 1 -9 -4 0 -5 -37 -35 -82 -68 -46 -32 -90
-64 -98 -71 -30 -24 -106 -80 -142 -104 -21 -14 -66 -51 -100 -83 -35 -31 -91
-83 -126 -114 -75 -68 -132 -122 -129 -122 2 0 -31 -35 -72 -77 -266 -278
-514 -610 -710 -951 -38 -65 -164 -309 -167 -322 0 -3 -11 -27 -23 -55 -118
-257 -266 -700 -302 -899 -4 -26 -13 -62 -18 -80 -10 -31 -19 -74 -26 -129 -2
-16 -8 -34 -13 -40 -11 -13 -22 -137 -12 -137 7 0 5 -34 -3 -90 -29 -192 -30
-741 -2 -979 21 -168 32 -248 56 -371 33 -175 54 -262 110 -450 89 -301 258
-702 396 -935 16 -27 32 -57 36 -65 11 -22 48 -80 126 -200 42 -65 152 -223
160 -230 4 -3 20 -23 36 -45 44 -59 40 -55 205 -250 55 -65 305 -315 389 -388
529 -462 1107 -779 1766 -970 105 -31 311 -80 385 -93 44 -8 134 -24 155 -28
24 -4 94 -14 155 -21 25 -3 63 -7 85 -10 267 -32 796 -27 1045 10 19 3 52 7
73 10 93 12 115 16 167 26 91 17 333 70 365 80 17 5 84 25 150 45 178 53 469
156 560 199 34 15 87 38 95 39 20 5 70 32 70 39 0 5 4 6 9 3 5 -3 21 4 37 16
15 13 25 18 21 11 -4 -6 39 14 96 44 56 30 110 57 120 60 9 3 17 9 17 14 0 5
9 9 19 9 11 0 22 4 25 9 3 5 35 26 71 47 36 21 65 42 65 47 0 4 5 5 10 2 6 -3
13 1 16 9 3 9 12 16 19 16 6 0 32 15 56 32 24 18 46 33 49 33 3 0 12 6 20 13
42 36 64 52 70 52 3 0 15 8 26 18 10 9 43 34 72 56 28 21 52 42 52 47 0 5 6 9
13 9 6 0 40 26 75 58 34 32 62 57 62 55 0 -2 11 6 24 19 13 13 57 56 99 95 42
40 74 73 72 73 -2 0 18 21 45 46 27 26 47 51 43 57 -3 5 -2 7 4 4 9 -5 53 35
53 48 0 2 10 15 23 28 12 13 38 43 57 66 19 24 40 48 45 55 22 24 122 161 122
166 0 3 11 18 26 34 15 16 27 35 27 41 0 7 7 16 16 19 8 3 12 10 9 16 -3 5 -2
10 2 10 10 0 41 50 41 64 0 5 7 13 16 18 9 5 16 16 16 23 0 8 4 15 8 15 5 0
14 16 22 35 8 19 17 35 22 35 4 0 8 5 8 11 0 6 8 23 18 37 36 52 205 379 285
552 144 310 297 826 341 1150 4 25 11 77 16 115 6 39 12 93 15 120 2 28 8 88
12 135 15 167 8 705 -11 820 -3 14 -7 48 -10 75 -36 322 -111 641 -228 975
-16 47 -33 94 -38 105 -4 11 -29 70 -54 131 -121 298 -353 710 -517 923 -10
13 -16 27 -13 32 3 5 1 8 -4 7 -5 -2 -33 29 -63 68 -30 39 -72 92 -94 118 -22
26 -48 57 -58 69 -115 141 -329 355 -507 506 -41 36 -76 68 -78 73 -2 4 -10 8
-18 8 -8 0 -14 5 -14 10 0 6 -4 10 -10 10 -5 0 -18 8 -28 18 -21 18 -36 31
-97 77 -44 33 -256 175 -261 175 -2 0 -29 17 -61 37 -364 232 -973 480 -1373
559 -14 3 -33 7 -42 10 -10 3 -30 7 -45 10 -16 2 -38 7 -51 9 -30 7 -174 31
-235 40 -27 3 -58 8 -68 10 -11 2 -55 7 -97 11 -42 4 -90 9 -107 11 -37 5
-631 13 -636 9z"/>
</g>
</svg>
